/* XPM */
static char *_3875_da9c88b5f4d1b1d7574602870299f3aecba641b49dc1180f1ac6f9ac9307fc20[] = {
/* columns rows colors chars-per-pixel */
"100 100 67 1 ",
"  c #706F6D",
". c #777674",
"X c #787775",
"o c #7A7977",
"O c #7F7E7C",
"+ c #807F7D",
"@ c #82817F",
"# c #858482",
"$ c #898785",
"% c #8A8987",
"& c #8D8C8A",
"* c #918F8D",
"= c #91908E",
"- c #918F90",
"; c #959493",
": c #999695",
"> c #9A9997",
", c #999798",
"< c #9D9C9B",
"1 c #A19E9D",
"2 c #A2A09F",
"3 c #A19FA0",
"4 c #A5A3A3",
"5 c #A9A6A5",
"6 c #AAA8A7",
"7 c #A9A7A8",
"8 c #ADABAB",
"9 c #B1AEAD",
"0 c #B2B0AF",
"q c #B1AFB0",
"w c #B5B3B3",
"e c #B9B6B5",
"r c #BAB8B7",
"t c #B9B7B8",
"y c #BDBBBB",
"u c #C0B6B7",
"i c #C0B7B8",
"p c #C1BEBD",
"a c #C2C0BF",
"s c #C1BFC0",
"d c #C8BFC0",
"f c #C5C3C3",
"g c #C9C6C6",
"h c #CAC8C7",
"j c #C9C7C8",
"k c #CCCBCB",
"l c #D0C7C8",
"z c #D0CECE",
"x c #D2D0CF",
"c c #D1CFD0",
"v c #D4D3D3",
"b c #D8D6D6",
"n c #DAD8D6",
"m c #D9D7D8",
"M c #DCDBDB",
"N c #E0DEDE",
"B c #E2E0DF",
"V c #E1DFE0",
"C c #E4E3E3",
"Z c #E8E6E6",
"A c #EAE9E7",
"S c #E9E7E8",
"D c #ECEBEB",
"F c #F2EEED",
"G c #F2F1EF",
"H c #F3F3F2",
"J c #FDFCFA",
/* pixels */
"74<3733877qtqqtsmjtssttstcccstsjtqsqmjqjfffsskvkjjkkkvMMMMMMMvkvvkvvsjMCMMMMMkt7stqjyjsskvvjqqq4tqq7",
"wq74737qtwtsdssscjststsssjjjsssssjtsvjyjjffsskvkkvkvvMMMCCCMMvkkjqqtyskMMCMMMks7sq7ssvkkvvvktqwttqq7",
"tytqtqqytttsstttsjjttttsjcjjjsstsmqjvvcjksfsjvvvvvvvvMMCCCCCMMkkj77sfsvMvMCCMMftvt7stvkkvvkkfqtsqqqq",
"qttsstqtqqtq77tssccsqtttjjjssjtqscqjvmvckfjjkvvvvvkvMMMMCMMCCMvvvysvvvMMvCCCMvkjvsqfskkkkkkkftqq77qq",
"788qyw7q7qtq77tssccjttqq7qq7qtttjtstcMcckfffkvMvMvvvMMCCMMMCCCCmksjvMMMMvCCMMvkkjstkskvvjvksttq7337t",
"8833qq7qqqqqtssttjjjsstt73,,,7qqs7sqkmcvvfffskvvvvvMMMMCCCMCCCMMksskMCCkvMMvvvvkkssvfkvvvvkq7qtq<37y",
"qq78qqqyttttsjstttsjjjsstq773773s7wskcmMvkkjskvvkjkMMMMCCMMCCCMvvkkvMCCvvMCMvvMMvkfvsvkvkkfq447q<,4t",
"7qqqtttssjsstsjjsttjjsssssssjst7tt7ckcCMvvvvfjvvkkvMCCCCCCMMCCMvckMCvjvMCCCCMCCCvjsvjvvMkjyq3,<7,,4w",
"q77qqwtsytysttsssqtjsttjssjjjtq3qttskMvkMMMvkvvvkkvMCCCMCCMkvMvMMMkkkkcCDCCDCMMvvvvkMMMMvcjtqq4<3,4w",
"77qtyttfytysysjkstsjjttstssjstq7qttykvvjkMMvkkvvkkMMCCCMCCvjkMvvvMMkssvCDCMCCMMMvvvvMMMMvvjtttq34<3q",
"77tssssksysstskcjssjsjsjtsjjjsq7qqtyjkjsjcMvvkkkkkMCCCMMMMvkkvvkvCMkyfMCDDDDCCvMkkvvvvvvMvksttq34<4q",
"qqssdsskkssstssksjjssssstsjccstqtttykvktfcvvvvkkkvvvMMMMvMMvkvMvvMvfskvjyMCDDMyjstfvvvvvvvkstt7<<;3t",
"wwtsjskkcsssttsksjjstssssjcccstqtqqscvjwjkvvvkkvvvvvvvvvvvMMkvMvvkkfysw,,kCMMMttttykvvvvvvksttq43;3q",
"ttssssscssssyssksjssstsstscjssqqwwwykvjtkjkkkjkvvvvvkvvvccMMjjvsjfvktw7-wMCvvvkjfssjvvvkkkksqtqqq<<7",
"ttsjssssssskssskjsssssttssjjssttqtsskkjsjfjkkjkkvvvvvvvvkkvvsjctstkktqt7kMMMkkjjvvkssvvkkkksqqq7q<<7",
"ttjsckdkssskssssjstsjstqsjjjssssqsjjjfjjjffkkjkvkvvvMvvvkskvfkkqq<qsqtjtcjvDMvkvvvvsskvkkvvt7333<;<q",
"ttscccjfsjjjjsjsjstsjjssstscjssstqqtssjssjjjckkvjvMMMvvvjsjksfsqt3,3tfstkjkkvMkkvkjsyqskkjs4<<-33-<q",
"tsjcdcjjjjssssjjcssjjjssttsjjsstttqqtssjsjjjkjjckvMMvkkcjtsjstt73,,3qstqfjvvvvkkvkvjsqsvkfs7<3;34;,q",
"ssjsjjjjjjssjjjjjssjjjjsttsjsssttttttsjjjjsssssjjkvkjssstttttqq33,<7tsttjjvkvktqsskjjqjvjjs744,47;,7",
"tsssfjffsssjjcstssssjjjjjtsjsttqqttsjjssjkjssstjsfkksssttqqqqq73q77tstsjkkvkst434qjfftjvjjsq74,44;;<",
"ttsfjsjssssjjcssssssssjjjssjsttqqqtsjjssjkssstsstfkvkjsstq7qqqq7tqqqtqtjkkvftqqqqtkkktjvkkkq3<;44--;",
"qtssfjjsssssjjjjcjjjsssjstsjsssqqtttssjssjststtjtskcvjssttqqttqqsqqqq7tskkvt47qttykjkskvkkkq3,-44--;",
"tttsssssstsssjjcmccjsssjsttssssttttttsstsssssssfssjkjsttqt77ttqtstqtt7qtjsf7333qsskfvkvkkks734,74,-;",
"sttttttsttsjjjjjccjjsssjsttssstqqtssjstttsstsstjsjjkjstqqq77sttstqtss77qttt73qqqkjkfvvvvkks777477<,,",
"jsqqqtqtttsjjjjcjccjssssjttsttqtttsstss7sqqtssjjckkkvj7qtqqsfstqstqqs7<7stssstqqfsfkkkkvkks7777q74<<",
"ftqqqqqtsssjjjcccjjstsjcsttsstqttttstjjqjsstssjccjjjvs7qqqqttststttssq3qssttq777tqtjjkvvsks7q7<343<<",
"jstq7qqssssjjcccjjsttsjjtttjsttttttstsjtjjjttsccksfkkt7sqttqtsjjsqsftqtstqqtq77q437tqsvvsjt774,<4433",
"jsttq7tssssscccjjjsttsssttsssttsttssssksjjjsssjcctsjjtqstttqtjccjtsfttfjqqttt7443,347tkvjkt33337q744",
"jsstqqtjsttsjccccjssjjjsstssjttttsjjsjksjjsssjjjctsjstqjsttqskcjjttjtsjjttsst73<q<<4qykkjkq<<33qq774",
"sssssssjsssscccccjstjjjjsttsjsssssjckkcsjjsjcjjsktsstssjjsttsjjsttsjjssttststqqtq3<4qtjjyjt<33<3qq74",
"sssjjsjjjssjjcccmcssjccstttcmcssksjcjkcjjsscjstfkqssskkjkjsssfjjtffjkststtsttqtkq<37qtfftjt333;<7743",
"ttscjjsjjjjjjjjjmcjjcmjtstsmVVcjcssjjcckcjscjttjjqsstcvkcjsfffkvskkffsskkjjstttf734qqtjkskt33<;<q743",
"60ahaafxxaakfaxxkjkvvcststjVVmvvcjccjskkjjssjjsjjssjccmmkmctsmmjccjjcjjmmjyttqqst37ttqscfvf3<,;<806>",
"0rhaaahxaaaxafkhvccccvsssylVMvvvjjkcjsjjjjjjcjjcjjjjccmmcmcjjvmjjcjcccjmvcsttttst77qqqyjsvs3<,;,6662",
"0aaaaahxfyaaaahhmcjjkcssttcmccvmkjkvcckjsjjcccjjjjjcckcMMmmccvcccccvmccvmvsttttjsqqtqqtjsvs33,-,2422",
"80arrhxhyyyaaahxmkssjjssyscmjlMVvcvMmvvkjjcccjsjcjjjccvmMmcmmccmvmmmVmjccmcysjjjjtsjsqtfsvs743;<<2<2",
"28wrafharraaaaaxckssjjsyccMmkcVSCmmMmvvccmcccjfccjsjjccmmccmmmmmmmvmMvsjjvvkcccvsqwsyqskjvfq73,<<<<2",
"<68rryraraafharasssssjdsmcvcsjmVCmmmccckcccjcjjccjsjjjjccccmvcmMmmccvjssjmvccjjjt74qtqjmvMjqq7<442<2",
"><6rrrraaxaaaa0asssyssssmsjcjjvVMvMMccvcmvckcjfkcjjjcjjjmmmcccmvkjsjksttjcckkstss77ttskMvMktt7<784<2",
";;20r0rxaar0yrrhtttttssjctsvmcmVCMMMvvvvVVmcmcjjjcccjjsjmMVcccccfsyysyqttsjkckkMjqtkvcvmvvktt7<482<<",
"<;20arahharryryaqysstssyscmmccmSCCMMMMmMCMMCVckvVmcckjkjmVVcjcvjttt8vjsskyfmCMvkftjckjvMCCkq74<<43<,",
">;>600aaxharrryaqtsssttsscmmmmMVCMMMMMMVSCCCCMvmVVMmmvccmcvcjvmjtstscmjkvjkMnnvvvjkvkvMMCMfqq7<-,,;-",
";;>>28rrxhaaaarrqtsssqqyscVmmVVVCMMCVMMVCMMMVVMvmmMMMmccVjjvmmmjsftkkMkvmkvMvvvvvkkvvkMMMCkq77,&;;;;",
"<2<>20rrhfahhfyrytsst77tycvccVDZCCCMCVCCMMMMVVmkccmMmmccCcjmVmmcjjtfjcjjkfkvkkvvkjvmkkMMMCMt743,;,,,",
"<4426raayyyajsssssstqqqqsgjfaNZZCCMCCCCCCCVMCVMcmmVVVmVmSkjmVVVmksstjfjyfsfkhkkhjkvMkvMMMCvq7q4<--;,",
";>2260aayye0qysssssq7qqqfgsfxNZZCCMCCCMCCCmmMMMvmmMMmVVVVkjmMVCCktswjscyjsfjfhkfkkMvjjMMCMyqqq4,---;",
"===;260reywq8wyssstq77qtgsdlBZZZCCCCCVMMMcjkcccVcmMmmmVCSckmVSSVjsjsyscjvcvkffxkjsjfyjvMvktqtq<,,,,<",
"2@;;>40rwyywqqwttqqsq37sdidNFFAZCCCCCVMVvfsjjjcVmmmVmmVCDmmMSDSvffscwsjcvmMvahvnkstttkMMkkjst3,3<3<3",
"@@<>>260rr00r06au699599uu9uZBZFZCVVCCVmmcsjsjsjVMmmmmVVDDSCSDVVmahhaahh0hMnvvxnxxaarrxnxanxr00>;<;;3",
"<;;;>226rr00rr0au91::159u9anbBAZSVVCVVcccjtjjscMMmmmmmVSDSDDDVvsahhaahr66xBMxhnBxhrrrhvhhnxar022<;,3",
"&=;;>266r000aarauu1*:1559ulBlnZZCVVmVmccmjtssscMVmmMmmVCSCSDScy76wrrhxr22xCABxnnharrrhhanBxhr026<,,7",
">>2222460060raaru951:>155ubBlbZBCmmmmcccccjssjcMVVVVVmVVmVSSMs73<0aaxnk6<hnBCnvaar00waxhBnxhr6263<<7",
"006622220660raa01551>:26uanbaBBBVmmmmmmmmcmcjccMVVVVmVVVcmVVct73<rhhxxr2#0avBBnfrr000axnBnnxr6262<28",
"0666624662260ar61111>190lxaaanBZVVmVmmmmmMMMcmmVmmmmmVmcscsstq772rahaa0<@0axMMBxhrr08anBnnBna8066448",
"44442260626660r05511159uaaaaalnZVmVVVMMVmMMmmMmmmmmmmmccksq7qttqrraahar0;ahxnxnvharr6rxnnnBna0000668",
"06622226626840r651115562uauupaalVVVCCVVSmmccmVmsmVVmmmcjcs73qssqrw0000064aaaxxvhxa006rhxBBBnr006w860",
"6022426666662260922:99u233quddcdcmmmVSSmmccjcvcjcVCMmMmjcssqtdms04;82060<aharaaha64>>rhxBnxhha88y868",
"4022626668600660u0299u62539esdmccccccmVcmmmccmccmCSVmVMcmcjtqscjar8<><06<rhrrahhh04><rhxnBnnna00r626",
"602266668660000raa8i9u111139qdmmccjsjcccmmmccmmmsVSVMVVcmmsq3qjjhaa<>;6<<raaahhhx0660rhxvBCBnhrrr844",
"60<<4<6262<2600ralaa991*119wtdmmccjsscccmmcmmmmMqcCCVMmccsst37tthah82;2>2ahahhhhh880rhaxnCBnxhrrr866",
"66<<4><<6<;>2600ulvu985145upscMmjccsjjcjmccccmmMqcVVVMmjcjs7,7tshyra62><6raahhaaa680rhhxnBBvvhr0r046",
"6r266<224<<66060uax095u519pdddmccjjsjjccccjjjsccsMVmmVmjcjt73qjcxy8h66<66rrrharra6680hknnBnvvkr6aw88",
"6060026642260000ppi9915115plsdcjcjjcccccmccsssjcmmMmmVmsjssq7tcmnhahr066600raarrr0000hxnxBnxxfw8ar00",
"20600<2662260rrhli9u11*118llddcccccjjccVVmccsssccvmmVCctssssqtsfMxnxh0r66000aaaar0aaaxvnxBnaayrrar08",
">26662<>2660rr00rr0r0@@@haruhdnBnxxxxxnnnhhhxnaanxnxBGBnvhr0ranBBBBnxar0arahharhaaaaaxMnMnka0rara00r",
"=>2662>><200rrr0rrrr02260rrhhdBBnxxhxxnBBxnxxxhhhhxhBHAABxhahxxxnBBBxxhhahxxhaaa60xnxkxxnxharrrah060",
"&>262<>>26000000rarrr6220rrxxdxnxxxhhhhxBBBBnnxBBBnhnGCBxhhhhhhhhvvxvxah6axxhxha6rxnarkMnnharaaah2>2",
"%=<2<>&&<6006226ahar0022raaaadxlhhxxxaarBnBBBBBBBnhaxnnBrhhhrrrahxaanh8840ahxxxhaaxxarxBMnkarahah6>2",
"#&=>>=&%=<662260rharr0620uuaahnnrhxnnxxhxhxxnBBBGChyw26rahaawrrarkaaxa48rrahnxxxhaxnxhxnnnkarryra626",
"#%&;>>>&;<44<<60raarrr66raadldxnhhxhxxnxhhxhxBxxaa60yrkBxhr0rrrr6ahhhr0raarxnxxnhaaxnnnnnnxhaayrr226",
"&%&=<2>;<222<<20rar600660aaaaulxhxxhhxnnnxxhxBxxxx0rafnBxa068rrrrahaarrr0rhkxhhxkaaahxnxMMnxkkhhhr0r",
"&%#&>>>&;>>>>20rra066066@rruuulnhxnnnBBBBnnhxnxnax06axBaaar066raxaahahar8axxhhhaayahaxxhnnnnxxhhh626",
"%O;<=;=&=&=;=>66069ul@u@@drr60dnxnBBnxnBBxnxaxxxkr8rhhhnnka06666aahaaxxrrahaahhxhaarahhhxnnhhhhkxr26",
"&@=;>2>>%@%=;262556609r06uruu0uxxxnnnnnnBnBnhxhhra06rhhhxha06666rraarhh00akkxxxaharaaahhhxxkhhhhhr60",
"&%%%=2=;&..%;<22@u6599a0u60uuuanxnnnnBnnBnnhha0r0r620rahhhar0668rrr0raha6axxhxhahrrraahhakxhhhaaa622",
"%=&#;<&>=. O&>22@00690d@ur0ruaaBxxnnnnnxhxh0rr6ar648060xaaaar00rrrrr0axh0axaraaahr0raaahhkkkharw02;;",
"%=<=2620&o.@%;2269u69rr9rrur0uxxxxnnnxxnxxhrrr6ar06rr60haaar000aaaha0ahaahkharahhrraaahxxhxhhrr006><",
"%=2;<2>6%O@%=>2>55966ruu0uharrahxxnnnnnnxxnxhr00rarrw00yaarar0rarrhhaaarhxvnxhahhaaahaaxxhhhharw862>",
"==2;&>==%###&26<@59909ru0uaaaualxnnxnnnnxhxxhhr08r00r0rahhaaarra0rkxaahahxnnnkhhhrahhahxxhhxharw622@",
"2;6<=22>;%@o@202u59u0660aruaaulBxxxxxxxxxrhhhxhr622ra80hhaaaar00hhxxahxhhxxxkxkhhrahxahxxxxxxaw066<>",
">>>>2@@22@@@@>22@@dld066u00uuuanhhxxnhhxxhaaxxha000raahhxhhxhr0raullaualanannnaarrrhhhxxxxxxarr008<>",
">2@>>2>@@@@>22@2950du066u00ur0dxxxnnxxhxhxaaharraaahhhxnnxnxhrrrlllblaalaannaannrrrraahhxhhha006r82<",
"@>@@>2>@@@@2>@@>506uu660000000axhxxnhaahxxaaaarrrraahxnnnBnnxhauuuuluaalaananaaarw0rr0rahhhhrw00r04<",
"@>@@>2@@@@@@2>>@@@5696uuuuuuurdxhxnxhraahxhahhahrrrahxxnBBnnnnxh99ullullaaaxnanarr0rr000rrrrw866062<",
"22>@22@@>@@621@@9555599uuruuudxnhnnxhraaahaahhhxhahhhhhhxnnxnnnxuullauauauaaaxaarrrr0880rrrar086642<",
"0rr006@2@>@2662@@115599uaaaahhxBxnnxhaaraaaahhhhaaaahaaaahhxxnxhaudlaauuuaaaxlnaharw08rahhharr0862<<",
"66666@@2@>266222555559uuaadalxnBxxnxhaaaaaaahhhhrraahaahrahxxxhxuuulaaaaaaanxlalhaarw0rararw644462<>",
">>>>2@@2>@6r021@@51599uudhdddlnBnnnxxhhaahahxnhxaahxnxxxaahnxhhhauulllaaaaaxxallahaarrrahar086682<>2",
">@@>@@@@@@r0066115@50u0aurhhhxnnxnnxxxhrxxxxnnnxhxxhhnnhhhxhxnxaaaanxaaauaaaudlahhhaaaahhar8444622;@",
">@@=>@@@@20r066@@@655@6uurddddnxxxxxhhhhhxxxxxxxhhhhhhaaxxxhhhhauauaalaaaaaaalllaahaahahar06442<42>:",
"=@>>2@@@@65006219105@05uaahhdlnxnhhhhrraahxhhahxarahhaahhhhaahaaaaaalaaaaaaadlllhahhhaahhr84642>>>:=",
">@@>@@@@2@@6662611@6606uhahxdlxxaahhhr000rarrrrarrraaahxaaaaahhhaBauaauauauuaduuaahaaaarar86662<2>:=",
">=@@@@=>@@2665561115660uaalldahd0rahaar66600rrrrrrr000raaalxxxxlaxaaaaaaaeuaaar0araarr00r064442<622>",
"=@@@@@@>9@@u95595159966uaaxxhdaaaharrar26660aaaa0ar060rraxnnnxxhnxxaaaaa0raaaaarahharr00rr06444422>>",
"@@@=@=>>@@@6950095599600hdllhhlhxhrraar66660raahrrr0rrahaxnnBxlxBxnBaalur0raaarahaaar000ar6646422<:=",
"@@@>2>>25@@6d@@5u555666rdahhaallh00aharr6660raaaarraaaaxruhnnxxxaraxu9a9rraar00rrrr00666hr4246<;061:",
"==2>>2>6@6>6r66>>>>6066rarahxxaarrrruuur025@dluau0uuurud0uullxlu00aauu159uuuuu5u5u555555ur>:1:::><<>",
">>62>2>6=2>606622222666006rrahaarr0r0ur06666dladuu0uu06u00uuddduu0u0u9:5515u95555u9551250r>:1>:==:;=",
">>6>>>>>=>=602222>>2666r6>260r0rr06660006600alua00606@u59960uuu0u9u551@>5:1555555u955>19r0>;>@::==@=",
">26>=>=>>>=>62226>22660r2>226060u022560000u0uu6r6560656556699955999551*=1:@115515551555urr>=>=@@===@"
};
